<svg viewBox="0 0 24 24" class="w-7 h-7" fill="none" stroke="currentColor" stroke-width="1.3">
  <!-- chip body -->
  <rect x="7" y="7" width="10" height="10" rx="1.5" fill="currentColor" fill-opacity="0.12"/>
  <rect x="7" y="7" width="10" height="10" rx="1.5"/>
  <!-- circuit legs -->
  <path d="M9 7V4M12 7V4M15 7V4M9 17v3M12 17v3M15 17v3M7 9H4M7 12H4M7 15H4M17 9h3M17 12h3M17 15h3" stroke-linecap="round"/>
  <!-- brain glyph, simplified -->
  <path
    d="M9.5 10c0-.9.7-1.6 1.5-1.6.4 0 .7.15 1 .4.3-.25.6-.4 1-.4.8 0 1.5.7 1.5 1.6 0 .3-.1.55-.2.8.5.25.9.75.9 1.35 0 .75-.55 1.35-1.25 1.45.05.15.05.3.05.45 0 .8-.65 1.45-1.45 1.45-.2 0-.4-.05-.55-.1-.15.05-.35.1-.55.1-.8 0-1.45-.65-1.45-1.45 0-.15 0-.3.05-.45-.7-.1-1.25-.7-1.25-1.45 0-.6.4-1.1.9-1.35-.1-.25-.2-.5-.2-.8z"
    fill="currentColor"
    stroke-width="0.6"
  />
</svg>
