<svg version="1.1" id="Layer_1" xmlns="http://www.w3.org/2000/svg" xmlns:xlink="http://www.w3.org/1999/xlink" x="0px" y="0px"
	 width="100%" viewBox="0 0 600 600" enable-background="new 0 0 600 600" xml:space="preserve">
<path fill="#4C80C0" opacity="1.000000" stroke="none" 
	d="
M313.293152,388.337677 
	C267.678345,401.374634 223.169144,375.088806 212.591446,329.235596 
	C212.058365,326.924683 212.238174,324.293427 208.336563,324.519073 
	C186.132614,325.803345 166.222122,319.531494 148.649475,305.871216 
	C148.140030,305.475189 147.506042,305.239288 146.257553,304.566040 
	C146.082825,306.305817 145.828247,307.656311 145.828903,309.006683 
	C145.846130,345.165802 145.664963,381.327026 145.998627,417.483429 
	C146.273346,447.251587 168.228973,473.485077 197.329193,479.676056 
	C197.817825,479.780029 198.309448,479.873169 198.802902,479.950745 
	C210.164505,481.736176 210.508652,481.519440 213.486496,470.726196 
	C223.437134,434.659760 257.472015,410.100159 294.498291,412.267975 
	C332.396484,414.486877 363.343506,443.094849 368.700378,480.861694 
	C374.634613,522.698975 345.990662,561.911377 303.841919,569.650208 
	C262.669861,577.209717 221.964172,550.244324 212.865112,509.390137 
	C212.505341,507.774780 212.070404,506.176208 211.847610,505.281250 
	C202.493622,503.581757 193.325745,502.720398 184.640503,500.197479 
	C148.978363,489.838165 121.984390,453.361511 121.979424,416.171387 
	C121.972534,364.673126 122.033768,313.174835 122.065620,261.676575 
	C122.066849,259.689911 122.065781,257.703247 122.065781,255.292480 
	C84.664917,246.460068 56.972588,225.300522 41.014420,190.211395 
	C29.564991,165.036194 27.768126,138.796280 35.685028,112.157494 
	C51.608910,58.576839 102.814163,26.672421 154.389114,31.531248 
	C213.984711,37.145695 256.233368,86.958755 257.207581,142.787415 
	C258.191895,199.191635 213.462082,254.627640 147.726074,257.521332 
	C147.404053,268.551392 147.866928,278.947357 158.430832,286.162903 
	C173.492172,296.450409 189.808258,302.037231 208.173920,301.371338 
	C210.968063,301.269989 211.679092,300.234375 212.200500,297.659973 
	C219.812943,260.074921 251.788773,233.459106 289.435242,233.212418 
	C327.252625,232.964600 359.583130,258.988373 367.649170,296.414581 
	C368.384674,299.827393 369.392242,301.106995 373.040375,301.043396 
	C386.180511,300.814301 399.327026,300.953369 412.776794,300.953369 
	C417.447449,275.925873 430.116974,256.561829 452.036469,243.826859 
	C468.325470,234.363159 485.972168,231.214264 504.558868,234.313599 
	C543.126038,240.744675 570.901184,274.005096 570.923645,313.536469 
	C570.944824,350.692657 542.690735,383.656952 505.600769,390.710052 
	C469.167267,397.638336 421.037384,375.064545 412.495636,324.102081 
	C398.756866,324.102081 384.944519,324.011017 371.138916,324.274872 
	C370.033142,324.295990 368.343933,326.614838 367.986420,328.118164 
	C360.854523,358.107941 342.902100,378.233154 313.293152,388.337677 
M232.909531,130.791367 
	C232.656204,129.484253 232.396683,128.178299 232.150436,126.869858 
	C224.236786,84.819977 186.183334,53.694855 143.397858,54.277660 
	C91.085442,54.990234 50.940742,98.846725 54.743603,151.128922 
	C58.947216,208.920624 116.892082,247.654587 171.920654,229.578400 
	C213.183533,216.024048 239.456970,174.546921 232.909531,130.791367 
M248.907928,529.570984 
	C260.235565,541.670837 274.332520,547.830322 290.760345,547.619141 
	C329.892029,547.115967 356.508392,508.048492 342.323883,471.580872 
	C333.832245,449.749298 317.181732,437.474609 293.732941,435.807251 
	C270.295380,434.140717 249.156723,446.456879 239.672134,467.119690 
	C229.433167,489.425903 232.741333,510.209167 248.907928,529.570984 
M521.969299,265.480591 
	C510.885895,258.475098 498.861786,255.599518 485.762756,256.811981 
	C453.753998,259.774719 430.979218,289.667023 436.165955,322.075012 
	C441.101685,352.914581 472.265808,374.332733 502.770752,367.399719 
	C526.517212,362.002777 541.774109,347.057648 546.398682,323.239655 
	C551.019409,299.441162 542.359009,280.084290 521.969299,265.480591 
M263.033722,263.433350 
	C241.041565,276.524597 230.538406,298.647369 235.029617,323.025635 
	C239.932953,349.640961 263.517975,369.926025 291.925629,368.500763 
	C322.809021,366.951355 345.763519,343.124207 346.109131,313.886322 
	C346.620514,270.624359 302.802368,243.614273 263.033722,263.433350 
z"/>
<path fill="#87B4DF" opacity="1.000000" stroke="none" 
	d="
M423.603973,532.386108 
	C420.239227,523.900391 416.830017,515.803955 414.024078,507.503540 
	C412.965210,504.371246 412.034729,502.511871 408.376038,503.006134 
	C406.085663,503.315643 403.718567,503.090881 401.386719,503.053986 
	C394.296753,502.941895 389.924713,498.482666 389.946869,491.417725 
	C389.968750,484.442596 394.410889,480.079620 401.577881,479.963104 
	C405.066254,479.906403 409.442841,481.044464 411.785278,479.365143 
	C414.011475,477.769196 414.109741,473.205719 415.144440,469.947266 
	C424.993347,438.932129 445.860992,419.561157 477.714630,413.535767 
	C521.661743,405.222687 563.878540,435.873047 570.136292,481.353119 
	C576.510315,527.679260 539.569397,572.622498 488.588348,570.752563 
	C460.650543,569.727966 438.788910,556.629944 423.603973,532.386108 
M437.973785,508.341888 
	C447.069366,537.143311 476.431152,552.944641 505.054260,545.969849 
	C529.785034,539.943481 550.346924,515.651672 547.194458,485.721100 
	C543.982971,455.230072 516.024048,430.277222 480.973846,436.557434 
	C449.837860,442.136292 428.117035,473.847595 437.973785,508.341888 
z"/>
<path fill="#FDFEFE" opacity="1.000000" stroke="none" 
	d="
M232.954254,131.228760 
	C239.456970,174.546921 213.183533,216.024048 171.920654,229.578400 
	C116.892082,247.654587 58.947216,208.920624 54.743603,151.128922 
	C50.940742,98.846725 91.085442,54.990234 143.397858,54.277660 
	C186.183334,53.694855 224.236786,84.819977 232.150436,126.869858 
	C232.396683,128.178299 232.656204,129.484253 232.954254,131.228760 
M132.913910,89.397957 
	C116.273216,82.252327 100.408714,90.851562 100.023781,108.029427 
	C99.475136,132.513245 99.510811,157.027344 100.041435,181.512360 
	C100.414719,198.737396 117.820206,208.597443 132.712662,199.954346 
	C152.443176,188.503403 171.906708,176.538376 190.975677,164.018555 
	C206.451126,153.858047 206.142914,135.883255 190.641144,125.768593 
	C171.809296,113.481079 152.615204,101.748741 132.913910,89.397957 
z"/>
<path fill="#FEFEFF" opacity="1.000000" stroke="none" 
	d="
M248.662506,529.311584 
	C232.741333,510.209167 229.433167,489.425903 239.672134,467.119690 
	C249.156723,446.456879 270.295380,434.140717 293.732941,435.807251 
	C317.181732,437.474609 333.832245,449.749298 342.323883,471.580872 
	C356.508392,508.048492 329.892029,547.115967 290.760345,547.619141 
	C274.332520,547.830322 260.235565,541.670837 248.662506,529.311584 
M262.165070,501.651428 
	C269.301971,504.498596 275.318634,502.544220 278.171753,496.452026 
	C280.612244,491.240906 278.614899,484.541870 273.741974,481.594666 
	C268.649933,478.514984 261.474365,479.979675 258.186340,484.769867 
	C254.313339,490.412354 255.555130,496.608185 262.165070,501.651428 
M322.639404,487.125916 
	C318.285187,479.841003 311.374054,477.742126 305.579865,481.944916 
	C300.587830,485.565826 299.071014,491.722076 301.889618,496.922180 
	C304.688385,502.085724 310.654755,504.427368 315.940521,502.436768 
	C321.919312,500.185150 324.563293,494.649933 322.639404,487.125916 
z"/>
<path fill="#FCFDFE" opacity="1.000000" stroke="none" 
	d="
M522.272217,265.680054 
	C542.359009,280.084290 551.019409,299.441162 546.398682,323.239655 
	C541.774109,347.057648 526.517212,362.002777 502.770752,367.399719 
	C472.265808,374.332733 441.101685,352.914581 436.165955,322.075012 
	C430.979218,289.667023 453.753998,259.774719 485.762756,256.811981 
	C498.861786,255.599518 510.885895,258.475098 522.272217,265.680054 
M463.120667,330.377777 
	C466.461060,333.627136 469.654114,337.047455 473.177856,340.084015 
	C477.930878,344.179871 483.945618,344.541565 488.176880,340.428131 
	C500.349152,328.594635 512.396606,316.619537 524.118774,304.342712 
	C528.812988,299.426392 527.579163,292.023560 522.348816,287.987396 
	C517.664429,284.372559 511.267761,284.951385 506.544128,289.628418 
	C498.049683,298.039093 489.649017,306.544525 480.327911,315.894348 
	C477.616150,312.812561 475.372498,309.931458 472.788879,307.396942 
	C467.697052,302.401947 460.386963,302.301453 455.834625,306.940979 
	C451.267181,311.595886 451.560364,318.673889 456.588074,323.902832 
	C458.548950,325.942169 460.604523,327.890503 463.120667,330.377777 
z"/>
<path fill="#FDFEFE" opacity="1.000000" stroke="none" 
	d="
M263.359436,263.256226 
	C302.802368,243.614273 346.620514,270.624359 346.109131,313.886322 
	C345.763519,343.124207 322.809021,366.951355 291.925629,368.500763 
	C263.517975,369.926025 239.932953,349.640961 235.029617,323.025635 
	C230.538406,298.647369 241.041565,276.524597 263.359436,263.256226 
M282.410095,342.318451 
	C283.157745,341.957092 284.071045,341.762817 284.628662,341.209839 
	C297.267303,328.675995 310.173645,316.389801 322.325836,303.398621 
	C327.315369,298.064636 324.218994,289.125122 317.501221,286.365082 
	C312.229706,284.199219 307.788025,285.708282 303.903778,289.625732 
	C295.594971,298.005585 287.243835,306.343445 277.431366,316.180939 
	C274.912354,312.903931 272.964966,309.727173 270.400513,307.169037 
	C265.147949,301.929474 258.291626,301.933350 253.532959,306.775909 
	C248.751236,311.641907 248.951538,318.317871 254.191391,323.641083 
	C259.213745,328.743317 264.383057,333.700562 269.444000,338.765259 
	C272.869659,342.193420 276.822296,343.786469 282.410095,342.318451 
z"/>
<path fill="#FEFEFF" opacity="1.000000" stroke="none" 
	d="
M437.865631,507.950989 
	C428.117035,473.847595 449.837860,442.136292 480.973846,436.557434 
	C516.024048,430.277222 543.982971,455.230072 547.194458,485.721100 
	C550.346924,515.651672 529.785034,539.943481 505.054260,545.969849 
	C476.431152,552.944641 447.069366,537.143311 437.865631,507.950989 
z"/>
<path fill="#4C7FC0" opacity="1.000000" stroke="none" 
	d="
M133.245880,89.587090 
	C152.615204,101.748741 171.809296,113.481079 190.641144,125.768593 
	C206.142914,135.883255 206.451126,153.858047 190.975677,164.018555 
	C171.906708,176.538376 152.443176,188.503403 132.712662,199.954346 
	C117.820206,208.597443 100.414719,198.737396 100.041435,181.512360 
	C99.510811,157.027344 99.475136,132.513245 100.023781,108.029427 
	C100.408714,90.851562 116.273216,82.252327 133.245880,89.587090 
M140.041550,169.520294 
	C151.234558,162.597977 162.446503,155.706009 173.611816,148.739304 
	C178.496048,145.691742 178.512192,144.444199 173.822983,141.491135 
	C158.034561,131.548218 142.228241,121.633675 126.416740,111.727455 
	C125.353432,111.061272 124.190361,110.554321 123.116173,109.995407 
	C122.729294,110.559814 122.401085,110.815178 122.400429,111.071388 
	C122.346039,132.231979 122.294426,153.392624 122.306396,174.553238 
	C122.308662,178.557068 124.389061,179.098618 127.502022,177.227921 
	C131.499847,174.825516 135.459839,172.360123 140.041550,169.520294 
z"/>
<path fill="#89B5E0" opacity="1.000000" stroke="none" 
	d="
M261.828430,501.456665 
	C255.555130,496.608185 254.313339,490.412354 258.186340,484.769867 
	C261.474365,479.979675 268.649933,478.514984 273.741974,481.594666 
	C278.614899,484.541870 280.612244,491.240906 278.171753,496.452026 
	C275.318634,502.544220 269.301971,504.498596 261.828430,501.456665 
z"/>
<path fill="#88B5E0" opacity="1.000000" stroke="none" 
	d="
M322.776611,487.482025 
	C324.563293,494.649933 321.919312,500.185150 315.940521,502.436768 
	C310.654755,504.427368 304.688385,502.085724 301.889618,496.922180 
	C299.071014,491.722076 300.587830,485.565826 305.579865,481.944916 
	C311.374054,477.742126 318.285187,479.841003 322.776611,487.482025 
z"/>
<path fill="#4C80C0" opacity="1.000000" stroke="none" 
	d="
M462.868835,330.129028 
	C460.604523,327.890503 458.548950,325.942169 456.588074,323.902832 
	C451.560364,318.673889 451.267181,311.595886 455.834625,306.940979 
	C460.386963,302.301453 467.697052,302.401947 472.788879,307.396942 
	C475.372498,309.931458 477.616150,312.812561 480.327911,315.894348 
	C489.649017,306.544525 498.049683,298.039093 506.544128,289.628418 
	C511.267761,284.951385 517.664429,284.372559 522.348816,287.987396 
	C527.579163,292.023560 528.812988,299.426392 524.118774,304.342712 
	C512.396606,316.619537 500.349152,328.594635 488.176880,340.428131 
	C483.945618,344.541565 477.930878,344.179871 473.177856,340.084015 
	C469.654114,337.047455 466.461060,333.627136 462.868835,330.129028 
z"/>
<path fill="#4D80C0" opacity="1.000000" stroke="none" 
	d="
M282.040649,342.464600 
	C276.822296,343.786469 272.869659,342.193420 269.444000,338.765259 
	C264.383057,333.700562 259.213745,328.743317 254.191391,323.641083 
	C248.951538,318.317871 248.751236,311.641907 253.532959,306.775909 
	C258.291626,301.933350 265.147949,301.929474 270.400513,307.169037 
	C272.964966,309.727173 274.912354,312.903931 277.431366,316.180939 
	C287.243835,306.343445 295.594971,298.005585 303.903778,289.625732 
	C307.788025,285.708282 312.229706,284.199219 317.501221,286.365082 
	C324.218994,289.125122 327.315369,298.064636 322.325836,303.398621 
	C310.173645,316.389801 297.267303,328.675995 284.628662,341.209839 
	C284.071045,341.762817 283.157745,341.957092 282.040649,342.464600 
z"/>
<path fill="#FBFCFE" opacity="1.000000" stroke="none" 
	d="
M139.738831,169.721069 
	C135.459839,172.360123 131.499847,174.825516 127.502022,177.227921 
	C124.389061,179.098618 122.308662,178.557068 122.306396,174.553238 
	C122.294426,153.392624 122.346039,132.231979 122.400429,111.071388 
	C122.401085,110.815178 122.729294,110.559814 123.116173,109.995407 
	C124.190361,110.554321 125.353432,111.061272 126.416740,111.727455 
	C142.228241,121.633675 158.034561,131.548218 173.822983,141.491135 
	C178.512192,144.444199 178.496048,145.691742 173.611816,148.739304 
	C162.446503,155.706009 151.234558,162.597977 139.738831,169.721069 
z"/>
</svg>
